# xmcd
#
# Track frame offsets: 
#        150
#        19486
#        38027
#        64115
#        81359
#        108500
#        136358
#        151154
#        169789
#        194764
#
# Disc length: 3193 seconds
#
# Revision: 2
# Processed by: cddbd v1.5.2PL0 Copyright (c) Steve Scherf et al.
# Submitted via: ExactAudioCopy v0.99pb5
#
DISCID=880c770a
DTITLE=Rick Fowler - back on my good foot
DYEAR=2008
DGENRE=Blues
TTITLE0=Infected With The Blues
TTITLE1=Skeletons In Your Closet
TTITLE2=Feel So Much Better
TTITLE3=Back On My Good Foot
TTITLE4=Preacher
TTITLE5=Back On My Good Foot
TTITLE6=Hellbound Train
TTITLE7=Road To Nowhere
TTITLE8=Hitchhiking
TTITLE9=Road To Nowhere
EXTD=YEAR: 2008
EXTT0=
EXTT1=
EXTT2=
EXTT3=
EXTT4=
EXTT5=
EXTT6=
EXTT7=
EXTT8=
EXTT9=
PLAYORDER=
